<svg width="280" height="123" viewBox="0 0 280 123" fill="none" xmlns="http://www.w3.org/2000/svg">
<path d="M61.6875 123C95.7568 123 123.375 95.4654 123.375 61.5C123.375 27.5344 95.7568 0 61.6875 0C27.6186 0 0 27.5344 0 61.5C0 95.4654 27.6186 123 61.6875 123Z" fill="#F2DF3C"/>
<path d="M30.707 81.0778L44.4534 40.4292H51.1346L64.8806 81.0778H59.1576L55.461 69.7212H39.8804L36.1838 81.0778H30.707ZM53.9551 65.1076L47.657 45.9436L41.3863 65.1076H53.9551Z" fill="black"/>
<path d="M93.1939 46.517L75.5595 81.0778H69.7268L88.4019 45.2066H67.3174V40.4292H93.1939V46.517Z" fill="black"/>
<path d="M179.145 81.0778H172.108L159.184 64.9167H152.995V81.0778H147.573V40.4292H158.088C160.425 40.4292 162.378 40.5564 163.948 40.8114C165.536 41.0661 167.042 41.6577 168.466 42.5858C169.89 43.4959 171.013 44.6695 171.834 46.1074C172.674 47.5452 173.094 49.3287 173.094 51.4582C173.094 54.4427 172.336 56.9362 170.821 58.938C169.306 60.94 167.243 62.4234 164.633 63.388L179.145 81.0778ZM167.426 51.8675C167.426 50.6846 167.216 49.6381 166.796 48.7281C166.376 47.7999 165.728 47.0448 164.852 46.4622C164.085 45.9528 163.19 45.5977 162.168 45.3975C161.146 45.1792 159.877 45.0699 158.362 45.0699H152.995V60.4122H157.76C159.311 60.4122 160.708 60.2757 161.949 60.0029C163.19 59.7297 164.249 59.1655 165.126 58.3103C165.91 57.5459 166.485 56.6359 166.85 55.5802C167.234 54.5246 167.426 53.2872 167.426 51.8675Z" fill="black"/>
<path d="M182.412 81.0778V40.4292H207.905V45.2337H187.834V56.372H206.536V61.1765H187.834V76.2731H207.905V81.0778H182.412Z" fill="black"/>
<path d="M243.066 81.0778H236.987L218.969 46.0255V81.0778H213.903V40.4292H221.598L238 72.6151V40.4292H243.066V81.0778Z" fill="black"/>
<path d="M260.888 81.0778V45.2337H247.197V40.4292H280V45.2337H266.31V81.0778H260.888Z" fill="black"/>
</svg>
