<svg width="32" height="32" viewBox="0 0 32 32" fill="none" xmlns="http://www.w3.org/2000/svg">
<path d="M26.0026 17.334C27.8399 17.334 29.3359 18.83 29.3359 20.6673C29.3359 22.5046 27.8399 24.0007 26.0026 24.0007C24.1653 24.0007 22.6693 22.5047 22.6693 20.6674C22.6693 18.83 24.1653 17.334 26.0026 17.334ZM26.0026 22.6674C27.1053 22.6674 28.0026 21.77 28.0026 20.6674C28.0026 19.5647 27.1053 18.6674 26.0026 18.6674C24.8999 18.6674 24.0026 19.5647 24.0026 20.6674C24.0026 21.77 24.8999 22.6674 26.0026 22.6674Z" fill="black"/>
<path d="M6.00262 17.334C7.83994 17.334 9.33594 18.83 9.33594 20.6673C9.33594 22.5046 7.83994 24.0007 6.00262 24.0007C4.16531 24.0007 2.66931 22.5047 2.66931 20.6674C2.66931 18.83 4.16531 17.334 6.00262 17.334ZM6.00262 22.6674C7.10531 22.6674 8.00262 21.77 8.00262 20.6674C8.00262 19.5647 7.10531 18.6674 6.00262 18.6674C4.89994 18.6674 4.00262 19.5647 4.00262 20.6674C4.00262 21.77 4.89994 22.6674 6.00262 22.6674Z" fill="black"/>
<path d="M4 13.3333H5.128C5.54 13.3333 5.944 13.192 6.26669 12.9333L11.52 8.73063C12.1093 8.26 12.8493 8 13.6027 8H23.24C24.3573 8 25.3933 8.55469 26.0133 9.484L27.148 11.188C27.488 11.696 28.056 12 28.6667 12C30.504 12 32 13.496 32 15.3333V18C32 19.8373 30.504 21.3333 28.6667 21.3333C28.2987 21.3333 28 21.0346 28 20.6666C28 20.2986 28.2987 20 28.6667 20C29.7694 20 30.6667 19.1027 30.6667 18V15.3333C30.6667 14.2306 29.7694 13.3333 28.6667 13.3333C27.608 13.3333 26.6267 12.808 26.0387 11.9266L24.904 10.2239C24.532 9.66662 23.9093 9.33325 23.24 9.33325H13.6027C13.1494 9.33325 12.7067 9.48925 12.352 9.77194L7.09869 13.9733C6.54269 14.4199 5.84138 14.6666 5.12669 14.6666H4C2.044 14.6666 1.33331 16.6599 1.33331 17.9999C1.33331 19.3132 2.33862 19.9999 3.33331 19.9999C3.70131 19.9999 4 20.2986 4 20.6666C4 21.0346 3.70131 21.3333 3.33331 21.3333C1.43331 21.3333 0 19.9 0 18C0 15.7373 1.40131 13.3333 4 13.3333Z" fill="black"/>
<path d="M8.66669 20H23.3333C23.7013 20 24 20.2987 24 20.6667C24 21.0347 23.7013 21.3334 23.3333 21.3334H8.66662C8.29862 21.3334 7.99994 21.0347 7.99994 20.6667C7.99994 20.2987 8.29869 20 8.66669 20Z" fill="black"/>
<path d="M9.99864 13.3327H15.9987V11.3327C15.9987 10.9647 16.2973 10.666 16.6653 10.666C17.0333 10.666 17.332 10.9647 17.332 11.3327V13.9994C17.332 14.3674 17.0333 14.6661 16.6653 14.6661H9.99864C9.63064 14.6661 9.33195 14.3674 9.33195 13.9994C9.33195 13.6314 9.63064 13.3327 9.99864 13.3327Z" fill="black"/>
<path d="M19.3321 13.3324H23.5868L22.7348 11.6311C22.5708 11.3018 22.7041 10.9018 23.0335 10.7364C23.3642 10.5724 23.7628 10.7044 23.9282 11.0351L25.2615 13.7018C25.3655 13.9071 25.3535 14.1538 25.2322 14.3498C25.1109 14.5458 24.8962 14.6658 24.6655 14.6658H19.3322C18.9642 14.6658 18.6655 14.3671 18.6655 13.9991C18.6655 13.6311 18.9641 13.3324 19.3321 13.3324Z" fill="black"/>
<path d="M14 16H15.3333C15.7013 16 16 16.2987 16 16.6667C16 17.0347 15.7013 17.3334 15.3333 17.3334H14C13.632 17.3334 13.3333 17.0347 13.3333 16.6667C13.3333 16.2987 13.632 16 14 16Z" fill="black"/>
</svg>
