<svg width="64" height="64" viewBox="0 0 64 64" fill="none" xmlns="http://www.w3.org/2000/svg">
<path d="M58 0H6C2.69139 0 0 2.69139 0 6V46C0 49.3086 2.69139 52 6 52H21.8847C21.4743 56.2681 19.8823 58.9116 19.0624 60H16V64H48V60H44.9377C44.1178 58.9116 42.5256 56.2681 42.1152 52H58C61.3086 52 64 49.3086 64 46V6C64 2.69139 61.3086 0 58 0ZM6 4H58C59.1035 4 60 4.89648 60 6V36H4V6C4 4.89648 4.89648 4 6 4ZM40.2732 60H23.7268C24.6848 58.1187 25.5959 55.4275 25.8767 52H38.1233C38.404 55.4274 39.3152 58.1185 40.2732 60ZM58 48H6C4.89648 48 4 47.1035 4 46V40H60V46C60 47.1035 59.1035 48 58 48Z" fill="black"/>
<path d="M33.4143 42.5858C34.1954 43.3669 34.1954 44.6332 33.4143 45.4143C32.6332 46.1954 31.3669 46.1954 30.5858 45.4143C29.8047 44.6332 29.8047 43.3669 30.5858 42.5858C31.3669 41.8047 32.6332 41.8047 33.4143 42.5858Z" fill="black"/>
</svg>
