<svg width="64" height="64" viewBox="0 0 64 64" fill="none" xmlns="http://www.w3.org/2000/svg">
<path d="M51.9004 8.15625H55.6505V11.9062H51.9004V8.15625Z" fill="black"/>
<path d="M59.3306 49.4063C57.1494 47.9538 54.5329 47.4378 51.9635 47.9533L41.8576 50.0752C42.451 47.1919 40.9455 44.2758 38.1826 43.1932L27.3681 38.9128C23.0596 37.2077 18.2756 37.1038 13.891 38.6224L0 43.4907V62.0588L15.9019 56.7234L35.2545 63.9998L64 58.0732L63.5125 55.6431C62.9971 53.0737 61.5119 50.8588 59.3306 49.4063ZM35.5596 60.1017L15.9734 52.7374L3.75612 56.8367V46.1546L15.1267 42.1697C18.6561 40.9472 22.5126 41.0309 25.9858 42.4056L36.8063 46.6883C37.9291 47.1282 38.5029 48.4588 38.0855 49.6546C37.8674 50.2794 37.426 50.7713 36.8429 51.0393C36.3 51.2887 35.7 51.3081 35.1538 51.0939L22.0565 45.9617L20.6861 49.4589L33.7834 54.5913C34.8247 54.9993 35.9323 55.1014 37.0059 54.9009L37.0121 54.9311L52.7108 51.6348C54.2931 51.3197 55.9051 51.6383 57.2492 52.5332C58.2396 53.1927 58.9975 54.1067 59.4555 55.1753L35.5596 60.1017Z" fill="black"/>
<path d="M31.9121 35.1414C32.5305 35.3216 33.1615 35.4095 33.7875 35.4094C35.5398 35.4094 37.2515 34.7211 38.5263 33.4461L48.1414 23.831L51.4505 27.1401L61.3374 17.2533C63.0541 15.5365 63.9996 13.2539 63.9996 10.8259C63.9996 8.39787 63.0541 6.11525 61.3373 4.3985L59.601 2.66225C57.8843 0.9455 55.6017 0 53.1738 0C50.7456 0 48.463 0.9455 46.7463 2.66225L36.8595 12.5491L40.1685 15.8581L23.374 32.6526L31.9121 35.1414ZM42.1628 12.5491L49.3979 5.31388C50.4064 4.30538 51.7473 3.75 53.1738 3.75C54.6 3.75 55.941 4.30538 56.9495 5.31388L58.6858 7.05013C59.6943 8.05863 60.2496 9.39963 60.2496 10.8259C60.2496 12.2521 59.6943 13.5931 58.6856 14.6016L51.4504 21.8368L42.1628 12.5491ZM45.4898 21.1795L35.8746 30.7945C35.1125 31.5566 33.9965 31.8429 32.9614 31.5411L30.5049 30.8251L42.8201 18.5099L45.4898 21.1795Z" fill="black"/>
</svg>
