<svg width="64" height="64" viewBox="0 0 64 64" fill="none" xmlns="http://www.w3.org/2000/svg">
<g clip-path="url(#clip0)">
<path d="M64 32.0414C64.0026 28.1891 61.7649 24.8569 58.2515 23.3963C57.889 22.7 52.9947 13.2544 52.9947 13.2544C51.3292 10.0878 48.2288 8.19727 44.7009 8.19727H19.2969C15.7717 8.19727 12.6724 10.0858 11.006 13.2491C9.97825 15.2003 5.54764 23.626 5.54764 23.626C2.12131 25.1485 0.00812429 28.3914 0.00549952 32.18L0 50.1788C0 53.2802 2.52315 55.8033 5.62451 55.8033H13.1348C16.2362 55.8033 18.7594 53.2802 18.7594 50.1788V47.679H45.235V50.1788C45.235 53.2802 47.7582 55.8033 50.8595 55.8033H58.3699C61.4712 55.8033 63.9944 53.2802 63.9944 50.1788L64 32.0414ZM60.2472 36.4312H50.3292C51.0311 34.3963 52.844 32.6815 55.6256 32.6815H60.2498L60.2472 36.4312ZM59.3522 28.9318H55.6256C52.9532 28.9318 50.5214 29.9707 48.7783 31.8572C47.1934 33.5724 46.2724 35.917 46.2516 38.2895C46.2472 38.7896 46.4428 39.2707 46.7949 39.6258C47.1469 39.981 47.6263 40.1807 48.1264 40.1807H59.9227C59.1482 42.3621 57.0642 43.9292 54.6213 43.9292H42.5019V34.5551C42.5019 31.4537 39.9787 28.9306 36.8774 28.9306H27.1282C24.0269 28.9306 21.5037 31.4537 21.5037 34.5551V43.9292H9.37543C7.87793 43.9292 6.46656 43.3422 5.40128 42.2761C4.79833 41.6728 4.34924 40.9585 4.07289 40.1807H15.8792C16.3793 40.1807 16.8586 39.9808 17.2107 39.6258C17.5627 39.2707 17.7583 38.7896 17.7539 38.2894C17.7331 35.9168 16.812 33.5724 15.2272 31.8572C13.4841 29.9707 11.0523 28.9318 8.37976 28.9318H4.76558C5.37528 28.0668 6.2387 27.3783 7.29686 26.9565C12.8116 24.7582 22.0489 23.4458 32.0067 23.4458C35.8585 23.4458 49.3584 24.2537 56.4733 26.7276C57.7097 27.1575 58.6973 27.9317 59.3522 28.9318ZM38.7522 43.9294H25.2534V34.5552C25.2534 33.5214 26.0945 32.6804 27.1282 32.6804H36.8774C37.9112 32.6804 38.7522 33.5214 38.7522 34.5552V43.9294ZM8.37989 32.6815C11.1615 32.6815 12.9744 34.3963 13.6763 36.4312H3.75217L3.7548 32.6815H8.37989ZM14.3237 14.9964C15.3445 13.0583 17.1572 11.9468 19.2971 11.9468H44.7011C46.8424 11.9468 48.6557 13.0596 49.6761 14.9998C49.6761 14.9998 53.1513 21.619 53.3336 21.9778C45.0104 20.1256 34.1739 19.6961 32.0068 19.6961C24.0274 19.6961 16.4336 20.5268 10.6493 21.9798C10.6492 21.9798 13.2963 16.9467 14.3237 14.9964ZM15.0097 50.1788C15.0097 51.2126 14.1686 52.0537 13.1348 52.0537H5.62451C4.59072 52.0537 3.74967 51.2126 3.74967 50.1788V45.7967C5.3659 47.0175 7.32086 47.679 9.37543 47.679H15.0098V50.1788H15.0097ZM58.3699 52.0537H50.8595C49.8257 52.0537 48.9847 51.2126 48.9847 50.1788V47.679H54.6213C56.7293 47.679 58.6768 46.9787 60.2447 45.7992V50.1788C60.2447 51.2126 59.4037 52.0537 58.3699 52.0537Z" fill="black"/>
</g>
<defs>
<clipPath id="clip0">
<rect width="64" height="64" fill="white"/>
</clipPath>
</defs>
</svg>
