<svg width="64" height="64" viewBox="0 0 64 64" fill="none" xmlns="http://www.w3.org/2000/svg">
<path d="M58.39 26.2669C55.3516 25.1275 51.351 24.5 47.125 24.5C42.107 24.5 37.0532 25.3961 33.75 27.1406C33.75 27.0491 33.75 10.0861 33.75 9.5C33.75 7.84438 32.7767 5.50575 28.14 3.76688C25.1016 2.6275 21.101 2 16.875 2C9.04975 2 0 4.32538 0 9.5V54.5C0 56.1558 0.97325 58.4944 5.61 60.2331C8.6485 61.3725 12.649 62 16.875 62C21.4856 62 28.4641 61.1263 31.9016 58.1351C34.9075 60.6836 41.0426 62 47.125 62C55.0136 62 64 59.6515 64 54.5V32C64 30.3444 63.0267 28.0057 58.39 26.2669ZM30 54.5C30 55.6004 25.4069 58.275 16.875 58.275C8.37975 58.275 3.75 55.6107 3.75 54.5V51.9075C7.43 53.8455 12.6898 54.5 16.875 54.5C21.0579 54.5 26.3188 53.8461 30 51.9075V54.5ZM30 47C30 48.1004 25.4069 50.775 16.875 50.775C8.37975 50.775 3.75 48.1107 3.75 47C3.75 45.634 3.75 45.0164 3.75 44.4075C7.43 46.3455 12.6898 47 16.875 47C21.0579 47 26.3188 46.3461 30 44.4075C30 45.4719 30 45.9276 30 47ZM30 39.5C30 40.6004 25.4069 43.275 16.875 43.275C8.37975 43.275 3.75 40.6107 3.75 39.5V36.9075C7.43 38.8455 12.6898 39.5 16.875 39.5C21.0579 39.5 26.3188 38.8461 30 36.9075V39.5ZM30 32C30 33.1004 25.4069 35.775 16.875 35.775C8.37975 35.775 3.75 33.1108 3.75 32V29.4075C7.42875 31.345 12.6884 32 16.875 32C21.0567 32 26.3189 31.3462 30 29.4075V32ZM30 24.5C30 25.6004 25.4069 28.275 16.875 28.275C8.37975 28.275 3.75 25.6108 3.75 24.5V21.9075C7.43 23.8455 12.6898 24.5 16.875 24.5C21.0579 24.5 26.3188 23.8461 30 21.9075V24.5ZM30 17C30 18.1004 25.4069 20.775 16.875 20.775C8.37975 20.775 3.75 18.1108 3.75 17V14.4075C7.43 16.3455 12.6898 17 16.875 17C21.0579 17 26.3188 16.3461 30 14.4075C30 15.367 30 16.0288 30 17ZM16.875 13.275C8.37975 13.275 3.75 10.6108 3.75 9.5C3.75 8.39962 8.34313 5.725 16.875 5.725C25.3703 5.725 30 8.38925 30 9.5C30 10.6004 25.4069 13.275 16.875 13.275ZM60.25 54.5C60.25 55.6004 55.6569 58.275 47.125 58.275C38.7601 58.275 33.75 55.6341 33.75 54.5V51.8594C37.0532 53.6039 42.107 54.5 47.125 54.5C51.3079 54.5 56.5687 53.8461 60.25 51.9075V54.5ZM60.25 47C60.25 48.1004 55.6569 50.775 47.125 50.775C38.7601 50.775 33.75 48.1341 33.75 47C33.75 44.062 33.75 45.1799 33.75 44.3594C37.0532 46.1039 42.107 47 47.125 47C51.3079 47 56.5687 46.3461 60.25 44.4075C60.25 45.4044 60.25 46.0569 60.25 47ZM60.25 39.5C60.25 40.6004 55.6569 43.275 47.125 43.275C38.7601 43.275 33.75 40.6341 33.75 39.5V36.8594C37.0532 38.6039 42.107 39.5 47.125 39.5C51.3079 39.5 56.5687 38.8461 60.25 36.9075V39.5ZM47.125 35.775C38.6531 35.775 33.75 33.1011 33.75 32C33.75 30.9446 38.5126 28.225 47.125 28.225C55.6203 28.225 60.25 30.8892 60.25 32C60.25 33.1004 55.6569 35.775 47.125 35.775Z" fill="black"/>
</svg>
