<svg width="64" height="64" viewBox="0 0 64 64" fill="none" xmlns="http://www.w3.org/2000/svg">
<path d="M34.667 48C34.667 49.4727 33.4731 50.6665 32.0005 50.6665C30.5278 50.6665 29.334 49.4727 29.334 48C29.334 46.5273 30.5278 45.3335 32.0005 45.3335C33.4731 45.3335 34.667 46.5273 34.667 48Z" fill="black"/>
<path d="M32 40C30.896 40 30 39.104 30 38V15.3335C30 14.2295 30.896 13.3335 32 13.3335C33.104 13.3335 34 14.2295 34 15.3335V38C34 39.104 33.104 40 32 40Z" fill="black"/>
<path d="M32 64C14.3545 64 0 49.6455 0 32C0 14.3545 14.3545 0 32 0C49.6455 0 64 14.3545 64 32C64 49.6455 49.6455 64 32 64ZM32 4C16.5601 4 4 16.5601 4 32C4 47.4399 16.5601 60 32 60C47.4399 60 60 47.4399 60 32C60 16.5601 47.4399 4 32 4Z" fill="black"/>
</svg>
